<mxfile host="app.diagrams.net" modified="2021-10-05T09:23:25.223Z" agent="5.0 (Windows NT 10.0; Win64; x64) AppleWebKit/537.36 (KHTML, like Gecko) Chrome/94.0.4606.61 Safari/537.36" etag="F4gxkTxk3EfB9_9nbljc" version="15.4.1" type="github">
  <diagram id="GSn9XQLWS9xdFV_JZX6r" name="Page-1">
    <mxGraphModel dx="426" dy="1332" grid="1" gridSize="10" guides="1" tooltips="1" connect="1" arrows="1" fold="1" page="1" pageScale="1" pageWidth="827" pageHeight="1169" math="0" shadow="0">
      <root>
        <mxCell id="0" />
        <mxCell id="1" parent="0" />
        <mxCell id="k5CdKatP7T84WLYExD8q-1" value="" style="rounded=0;whiteSpace=wrap;html=1;hachureGap=4;pointerEvents=0;" vertex="1" parent="1">
          <mxGeometry x="160" y="-360" width="520" height="490" as="geometry" />
        </mxCell>
        <mxCell id="k5CdKatP7T84WLYExD8q-2" value="Actor" style="shape=umlActor;verticalLabelPosition=bottom;verticalAlign=top;html=1;outlineConnect=0;" vertex="1" parent="1">
          <mxGeometry x="70" y="10" width="30" height="60" as="geometry" />
        </mxCell>
        <mxCell id="k5CdKatP7T84WLYExD8q-3" value="Company" style="shape=umlActor;verticalLabelPosition=bottom;verticalAlign=top;html=1;outlineConnect=0;" vertex="1" parent="1">
          <mxGeometry x="710" y="-330" width="30" height="60" as="geometry" />
        </mxCell>
        <mxCell id="k5CdKatP7T84WLYExD8q-4" value="Customer" style="shape=umlActor;verticalLabelPosition=bottom;verticalAlign=top;html=1;outlineConnect=0;" vertex="1" parent="1">
          <mxGeometry x="90" y="-360" width="30" height="70" as="geometry" />
        </mxCell>
        <mxCell id="k5CdKatP7T84WLYExD8q-6" value="Actor" style="shape=umlActor;verticalLabelPosition=bottom;verticalAlign=top;html=1;outlineConnect=0;" vertex="1" parent="1">
          <mxGeometry x="720" width="30" height="60" as="geometry" />
        </mxCell>
      </root>
    </mxGraphModel>
  </diagram>
</mxfile>
